<?xml version="1.0" standalone="no"?>
<!DOCTYPE svg PUBLIC "-//W3C//DTD SVG 20010904//EN"
 "http://www.w3.org/TR/2001/REC-SVG-20010904/DTD/svg10.dtd">
<svg version="1.0" xmlns="http://www.w3.org/2000/svg"
 width="1080.000000pt" height="1350.000000pt" viewBox="0 0 1080.000000 1350.000000"
 preserveAspectRatio="xMidYMid meet">

<g transform="translate(0.000000,1350.000000) scale(0.100000,-0.100000)"
fill="#000000" stroke="none">
<path d="M0 6750 l0 -6750 5400 0 5400 0 0 6750 0 6750 -5400 0 -5400 0 0
-6750z m5585 2445 c104 -12 244 -37 365 -65 134 -30 382 -129 532 -211 457
-249 804 -619 1032 -1102 56 -118 150 -396 171 -510 9 -45 20 -102 26 -126 15
-64 34 -310 34 -436 0 -534 -232 -1137 -595 -1545 -194 -217 -442 -417 -686
-552 -87 -48 -315 -143 -437 -183 -184 -59 -478 -105 -675 -105 -195 0 -445
32 -547 70 -148 55 -308 198 -392 350 -63 113 -90 286 -67 421 50 284 236 461
624 592 68 23 304 74 404 88 l89 13 38 -43 c22 -24 39 -48 39 -55 0 -26 -341
-490 -386 -525 -18 -14 -41 -21 -71 -21 -82 0 -162 -62 -178 -138 -19 -90 33
-174 128 -207 l54 -18 55 25 c77 35 103 75 102 153 0 33 -4 78 -8 100 -7 38
-4 44 61 132 37 50 126 170 196 267 71 97 134 176 140 176 7 0 30 -7 53 -15
80 -27 169 -38 225 -26 47 10 55 10 71 -6 18 -18 130 -227 194 -363 l36 -75
-27 -49 c-48 -85 -33 -209 32 -268 30 -27 89 -48 135 -48 144 1 239 148 178
275 -37 77 -81 109 -167 121 -28 3 -55 9 -61 13 -11 7 -222 424 -222 440 0 5
27 35 61 68 33 32 72 77 85 99 14 23 33 44 43 47 10 2 71 1 137 -4 65 -5 194
-13 285 -19 212 -14 218 -15 247 -71 29 -58 72 -83 138 -83 122 2 180 127 109
235 -43 66 -137 71 -223 13 -31 -21 -45 -25 -82 -20 -25 3 -103 8 -175 12 -71
4 -138 11 -149 16 -17 9 -16 11 9 24 15 8 32 14 37 14 27 0 201 95 258 140 87
69 175 156 208 205 14 22 37 53 49 68 70 87 153 287 189 457 22 106 22 402 -1
530 -32 185 -80 327 -169 509 -94 189 -202 332 -362 478 -122 111 -137 123
-234 185 -215 139 -381 214 -610 276 -206 56 -218 59 -411 83 -148 18 -207 21
-404 16 -126 -3 -260 -10 -297 -16 -157 -26 -206 -33 -258 -41 -79 -11 -344
-88 -419 -121 -35 -16 -70 -29 -78 -29 -7 0 -36 -11 -63 -25 -27 -14 -57 -25
-65 -25 -12 0 -7 8 13 25 17 14 34 25 40 25 6 0 12 3 14 8 4 10 43 32 208 114
309 156 528 225 835 263 139 17 397 17 540 0z m-346 -374 c35 -25 55 -87 42
-132 -16 -53 -51 -81 -111 -87 -48 -4 -52 -3 -90 36 -33 33 -40 46 -40 79 0
103 115 163 199 104z m-1826 -154 c49 -21 103 -86 110 -135 4 -22 11 -43 16
-47 9 -5 125 -30 256 -54 28 -5 77 -15 110 -21 33 -6 98 -17 145 -25 47 -8 94
-16 105 -19 11 -3 64 -12 118 -22 l97 -17 45 44 c70 69 137 85 217 50 24 -10
50 -26 57 -35 37 -44 63 -48 362 -56 158 -4 291 -10 296 -13 5 -3 155 -11 333
-17 l325 -11 20 27 c92 123 192 158 310 108 38 -15 92 -74 111 -120 20 -49 17
-128 -7 -180 l-20 -45 39 -82 c22 -45 63 -134 92 -197 29 -63 65 -143 81 -178
16 -35 29 -65 29 -68 0 -2 23 -53 51 -112 28 -59 69 -147 92 -197 51 -112 58
-120 112 -134 70 -18 115 -85 101 -152 -26 -131 -195 -145 -254 -21 -9 20 -28
42 -42 48 -14 7 -97 27 -185 44 -88 17 -187 38 -220 46 -33 8 -114 26 -180 40
-66 14 -147 32 -180 39 -33 7 -107 23 -165 35 -58 11 -134 27 -170 35 -112 26
-146 28 -159 14 -67 -80 -85 -121 -62 -144 5 -6 21 -39 36 -75 30 -71 45 -105
177 -385 49 -104 92 -192 94 -195 3 -2 58 -5 123 -5 l119 0 55 -38 c114 -79
169 -216 132 -329 -32 -96 -82 -156 -165 -200 -62 -32 -195 -32 -256 0 -101
52 -149 120 -167 238 -8 48 -18 80 -27 85 -19 11 -538 249 -565 259 -11 5 -58
26 -105 48 -47 22 -206 95 -355 162 -148 67 -319 145 -380 174 -186 88 -222
101 -240 86 -8 -7 -15 -18 -15 -25 0 -7 48 -104 106 -216 59 -112 145 -278
191 -369 47 -91 90 -171 95 -178 6 -6 32 -24 59 -38 60 -33 84 -77 76 -142 -7
-63 -48 -103 -114 -109 -68 -7 -109 15 -134 73 -24 52 -16 96 25 145 14 17 26
36 26 43 0 8 -18 47 -40 87 -22 41 -60 112 -84 159 -24 47 -65 123 -90 170
-26 47 -73 138 -106 202 -63 123 -85 148 -135 148 -17 0 -51 10 -75 23 -107
53 -120 212 -24 280 75 53 171 44 232 -20 l33 -36 57 12 c31 7 89 19 127 26
214 43 378 77 440 90 86 19 314 64 375 75 86 16 94 23 140 114 l42 86 -103
123 c-57 67 -116 136 -130 152 -15 17 -68 78 -118 138 l-92 107 -48 0 c-58 0
-123 21 -167 55 -18 14 -38 25 -45 25 -13 0 -299 -165 -512 -296 -73 -45 -229
-138 -347 -209 -118 -70 -221 -134 -227 -143 -7 -9 -13 -26 -13 -39 0 -35 -35
-97 -66 -117 -37 -25 -116 -23 -153 3 -28 20 -61 84 -61 117 0 32 33 84 66
105 34 21 95 23 164 4 19 -5 46 7 120 50 52 32 120 71 150 88 30 16 73 42 95
56 22 14 49 30 60 36 95 53 148 83 193 111 29 19 54 34 56 34 2 0 43 24 92 53
49 29 143 84 209 122 66 37 128 75 138 83 18 16 22 58 8 80 -8 13 -79 29 -221
52 -73 11 -269 45 -405 69 -205 37 -180 39 -233 -18 -53 -57 -102 -81 -162
-81 -45 0 -104 21 -133 48 -75 68 -75 226 0 294 55 50 154 71 216 45z m-419
-2255 c98 -153 248 -305 494 -502 l107 -86 -3 -174 c-4 -196 15 -400 48 -517
29 -105 27 -114 -16 -72 -115 108 -321 385 -417 559 -126 229 -252 598 -274
800 -8 80 6 78 61 -8z m1044 -861 c88 -45 96 -157 16 -220 -20 -15 -41 -21
-80 -21 -48 0 -59 4 -91 34 -34 31 -37 38 -37 89 -1 60 13 84 69 118 38 24 76
24 123 0z"/>
<path d="M7348 6480 c-35 -27 -61 -95 -53 -137 3 -18 19 -45 35 -61 53 -54
131 -51 180 5 49 55 41 140 -19 190 -35 30 -108 31 -143 3z"/>
<path d="M4778 8270 c-11 -7 -18 -23 -18 -42 0 -17 -13 -57 -30 -90 -16 -32
-30 -61 -30 -63 0 -4 99 -122 135 -161 5 -6 75 -88 155 -182 l145 -171 85 1
c58 1 96 -4 120 -14 19 -9 43 -18 52 -21 20 -7 63 23 220 156 66 56 134 113
151 127 103 81 283 235 290 247 5 9 1 28 -11 51 -11 21 -23 52 -26 69 -4 18
-15 34 -24 37 -32 9 -490 35 -810 46 -177 6 -337 13 -355 16 -17 2 -40 0 -49
-6z"/>
<path d="M6286 8004 c-36 -12 -55 -13 -79 -5 -57 20 -101 14 -144 -21 -77 -62
-578 -481 -597 -499 -20 -19 -21 -13 11 -132 2 -9 12 -21 22 -26 14 -8 231
-56 406 -91 22 -4 85 -18 140 -30 55 -12 118 -25 140 -30 84 -17 193 -40 280
-60 50 -11 110 -24 135 -29 25 -5 58 -14 73 -20 50 -19 95 -14 113 14 15 23
14 28 -15 90 -17 36 -31 68 -31 71 0 3 -29 65 -64 137 -95 195 -276 590 -276
603 0 15 -34 44 -51 43 -8 0 -36 -7 -63 -15z"/>
<path d="M4850 7244 c-58 -13 -123 -26 -145 -30 -77 -12 -706 -140 -749 -152
-34 -9 -52 -32 -43 -56 5 -13 161 -96 180 -96 3 0 38 -15 79 -34 196 -91 449
-206 453 -206 4 0 38 -15 210 -95 44 -21 121 -55 170 -77 50 -22 145 -66 212
-99 66 -32 124 -59 127 -59 4 0 44 -18 88 -40 45 -22 92 -40 104 -40 15 0 35
17 61 52 21 28 42 57 47 63 10 13 -91 247 -196 457 -26 53 -48 99 -48 102 0 3
-18 43 -40 90 l-40 83 -83 5 c-98 5 -128 22 -183 105 -42 63 -45 63 -204 27z"/>
</g>
</svg>
